<?xml version="1.0" encoding="utf-8"?>
<!-- Generator: Adobe Illustrator 27.4.0, SVG Export Plug-In . SVG Version: 6.00 Build 0)  -->
<svg version="1.1" id="Capa_1" xmlns="http://www.w3.org/2000/svg" xmlns:xlink="http://www.w3.org/1999/xlink" x="0px" y="0px"
	 viewBox="0 0 590.1 120" style="enable-background:new 0 0 590.1 120;" xml:space="preserve">
<style type="text/css">
	.st0{fill:#FF7200;}
	.st1{fill:#009EE0;}
	.st2{fill:#437E08;}
	.st3{fill:#727272;}
	.st4{fill-rule:evenodd;clipRule:evenodd;fill:#F78F1E;}
	.st5{fill-rule:evenodd;clipRule:evenodd;fill:#D8D8D8;}
</style>
<g>
	<path class="st0" d="M151,78.9l-3.1,17.6h-2.8l3.1-17.6h-6.4l0.4-2.5H158l-0.4,2.5C157.6,78.9,151,78.9,151,78.9z"/>
	<path class="st0" d="M156.8,89.5c-0.1,0.4-0.1,0.9-0.1,1.3c0,1.2,0.3,2.1,1,2.8c0.7,0.6,1.6,1,2.8,1c1.1,0,2.2-0.4,3.3-1.2
		l-0.3,2.7c-1.5,0.5-2.8,0.7-3.9,0.7c-3.8,0-5.7-2.1-5.7-6.3c0-2.5,0.8-4.6,2.4-6.3s3.6-2.6,6-2.6c1.5,0,2.6,0.3,3.5,0.9
		c0.9,0.6,1.3,1.5,1.3,2.7c0,1.6-0.7,2.9-2,3.8s-3,1.4-5,1.4C158.8,90.2,157.7,90,156.8,89.5z M157.2,87.6c0.7,0.3,1.5,0.5,2.5,0.5
		c1.4,0,2.6-0.2,3.5-0.7s1.4-1.1,1.4-2c0-1.1-0.8-1.7-2.3-1.7C159.8,83.7,158.2,85,157.2,87.6z"/>
	<path class="st0" d="M180.3,82.2l-0.5,2.2c-0.7-0.5-1.5-0.8-2.6-0.8c-1.7,0-3,0.7-4.1,2c-1,1.3-1.6,3-1.6,4.9c0,1.2,0.3,2.1,1,2.8
		s1.4,1.1,2.3,1.1c1.3,0,2.6-0.4,3.8-1.2l-0.3,2.7c-1.2,0.5-2.5,0.8-3.9,0.8c-1.8,0-3.2-0.5-4.2-1.6s-1.5-2.4-1.5-4.1
		c0-2.8,0.8-5.1,2.3-6.8c1.5-1.8,3.5-2.7,5.9-2.7C178.4,81.5,179.5,81.8,180.3,82.2z"/>
	<path class="st0" d="M190.6,96.4l1.6-9.2c0.1-0.4,0.1-0.7,0.1-1c0-1.7-0.8-2.5-2.5-2.5c-0.6,0-1.3,0.2-2,0.6
		c-0.7,0.4-1.3,0.8-1.7,1.3l-1.9,10.9h-2.7l3.6-20.6h2.6l-1.2,7.6c0.4-0.5,1.1-1,1.9-1.3c0.8-0.4,1.7-0.5,2.5-0.5
		c1.3,0,2.3,0.4,3,1.1s1.1,1.8,1.1,3.1c0,0.5,0,1-0.1,1.5l-1.6,9.2h-2.7V96.4z"/>
	<path class="st0" d="M206.1,96.4l1.5-8.5c0.1-0.8,0.2-1.4,0.2-1.9c0-1.5-0.8-2.3-2.4-2.3c-0.6,0-1.3,0.2-2,0.5
		c-0.7,0.4-1.3,0.8-1.7,1.3l-1.9,10.9h-2.6l2-11.1c0-0.3,0.1-0.6,0.1-0.9c0-0.9-0.1-1.7-0.3-2.4l2.5-0.5c0.2,1.3,0.4,2.1,0.4,2.2
		c1.1-1.4,2.7-2.2,4.8-2.2c2.7,0,4,1.3,4,4c0,0.5-0.1,1.1-0.2,1.8l-1.6,9.1L206.1,96.4L206.1,96.4z"/>
	<path class="st0" d="M212.5,91c0-2.6,0.8-4.9,2.3-6.7c1.5-1.9,3.5-2.8,5.9-2.8c1.8,0,3.1,0.5,4.1,1.4c0.9,1,1.4,2.3,1.4,4.1
		c0,1.4-0.3,2.9-0.8,4.4c-0.6,1.5-1.5,2.8-2.8,3.8s-2.8,1.5-4.6,1.5s-3.1-0.5-4.1-1.5S212.5,92.8,212.5,91z M215.2,90.9
		c0,2.5,1,3.7,3.1,3.7c1.5,0,2.8-0.7,3.7-2.2s1.4-3.2,1.4-5.2c0-2.3-1-3.5-3.1-3.5c-1.1,0-2,0.4-2.8,1.1c-0.8,0.7-1.4,1.7-1.7,2.9
		S215.2,89.9,215.2,90.9z"/>
	<path class="st0" d="M233.2,94.8l-0.3,1.9c-2.9,0-4.4-1.1-4.4-3.3c0-0.7,0.2-2.1,0.7-4.4l2.6-13.3h2.7L232,88.2
		c-0.5,2.6-0.8,4.2-0.8,4.9C231.3,94.2,231.9,94.8,233.2,94.8z"/>
	<path class="st0" d="M236.5,91c0-2.6,0.8-4.9,2.3-6.7c1.5-1.9,3.5-2.8,5.9-2.8c1.8,0,3.1,0.5,4.1,1.4c0.9,1,1.4,2.3,1.4,4.1
		c0,1.4-0.3,2.9-0.8,4.4c-0.6,1.5-1.5,2.8-2.8,3.8s-2.8,1.5-4.6,1.5c-1.8,0-3.1-0.5-4.1-1.5S236.5,92.8,236.5,91z M239.3,90.9
		c0,2.5,1,3.7,3.1,3.7c1.5,0,2.8-0.7,3.7-2.2c0.9-1.5,1.4-3.2,1.4-5.2c0-2.3-1-3.5-3.1-3.5c-1.1,0-2,0.4-2.8,1.1s-1.4,1.7-1.7,2.9
		S239.3,89.9,239.3,90.9z"/>
	<path class="st0" d="M250.4,100.5l1.2-1.9c1.7,0.8,3.1,1.3,4.2,1.3c1.2,0,2.2-0.2,3-0.7c0.8-0.4,1.2-1.1,1.2-1.9
		c0-0.4-0.1-0.7-0.4-1s-0.7-0.4-1.4-0.6l-2.4-0.4c-1-0.2-1.5-0.7-1.5-1.5c0-0.6,0.8-1.2,2.3-1.8h-0.5c-1.1,0-2-0.4-2.8-1.2
		s-1.2-1.8-1.2-2.9c0-1.9,0.6-3.5,1.9-4.7c1.2-1.2,2.8-1.8,4.7-1.8c1.4,0,2.5,0.3,3.3,1l1.2-1.4l1.4,1.5l-1.4,1.4
		c0.3,0.4,0.4,1,0.4,1.8c0,1.6-0.4,2.9-1.2,4c-0.8,1.1-1.8,1.9-3.1,2.4c-1.3,0.5-1.9,0.9-1.9,1.3c0,0.3,0.2,0.5,0.5,0.5
		c0.1,0,0.3,0,0.6-0.1c0.3,0,0.4-0.1,0.6-0.1c2.3,0,3.4,1,3.4,3.1c0,1.6-0.7,2.9-2.2,3.9c-1.4,1-3.2,1.4-5.1,1.4
		C253.3,102.1,251.7,101.6,250.4,100.5z M258.6,83.6c-1.1,0-1.9,0.4-2.7,1.2c-0.7,0.8-1.1,1.8-1.1,2.9c0,2,0.8,3,2.3,3
		c1,0,1.9-0.5,2.7-1.5c0.8-1,1.2-2.1,1.2-3.2c0-0.7-0.2-1.3-0.7-1.8C259.9,83.8,259.4,83.6,258.6,83.6z"/>
	<path class="st0" d="M265.1,102.1v-2.6c1.7,0,2.9-0.3,3.6-0.8s1.2-1.3,1.5-2.3c-1.3,0-2.1-1.3-2.6-3.8l-1.8-10.9h2.8l1.6,10.6
		c0.2,1,0.5,1.6,1.1,1.6l5.3-12.2h3l-7.4,16.4c-0.6,1.4-1.4,2.4-2.5,3C268.8,101.8,267.3,102.1,265.1,102.1z"/>
	<path class="st1" d="M288.6,89.1c0-3.5,0.9-6.6,2.8-9.1c1.9-2.6,4.3-3.9,7.3-3.9c2.3,0,4.1,0.6,5.3,1.9c1.2,1.3,1.8,3.1,1.8,5.4
		c0,3.9-1,7.1-2.9,9.6s-4.5,3.8-7.9,3.8c-2,0-3.6-0.7-4.8-2.1C289.1,93.2,288.6,91.3,288.6,89.1z M291.5,88.7c0,1.7,0.3,3.1,1,4.1
		s1.7,1.5,3,1.5c2.3,0,4.1-1.1,5.4-3.2s2-4.6,2-7.5c0-3.4-1.5-5.2-4.4-5.2c-2,0-3.7,1.1-5,3.3C292.2,83.9,291.5,86.3,291.5,88.7z"/>
	<path class="st1" d="M311.8,81.8l-1.7,9.3c-0.1,0.4-0.1,0.8-0.1,1.1c0,1.5,0.8,2.3,2.4,2.3c1,0,1.9-0.4,2.8-1.1
		c0.9-0.7,1.4-1.6,1.6-2.6l1.7-9h2.7l-2.7,14.6h-2.7l0.4-2.1c-1,1.6-2.8,2.3-5.3,2.3c-1.1,0-2-0.3-2.7-1c-0.6-0.7-1-1.6-1-2.9
		c0-0.4,0-0.9,0.1-1.4l1.7-9.6L311.8,81.8L311.8,81.8z"/>
	<path class="st1" d="M326,83.8h-1.7l0.4-2h1.7l0.6-3.1l3-1.1l-1,4.2h4l-0.4,2h-4l-1.5,7.3c-0.1,0.6-0.2,1-0.2,1.3
		c0,1.4,0.7,2.1,2.1,2.1c0.7,0,1.4-0.2,2.2-0.5l-0.1,2.3c-0.7,0.3-2,0.4-3.6,0.4c-1,0-1.9-0.3-2.4-1c-0.6-0.6-0.9-1.5-0.9-2.6
		c0-0.3,0-0.6,0.1-0.9L326,83.8z"/>
	<path class="st1" d="M333.5,95.5l1.4-2.5c0.4,0.4,0.9,0.7,1.5,1c0.7,0.3,1.2,0.4,1.7,0.4c0.8,0,1.5-0.2,2-0.7
		c0.5-0.4,0.8-1,0.8-1.8c0-0.4-0.1-0.7-0.4-1s-0.8-0.6-1.4-1l-1.9-1.1c-0.6-0.3-1-0.8-1.3-1.3s-0.4-1.1-0.4-1.6
		c0-1.4,0.5-2.4,1.6-3.3c1.1-0.8,2.4-1.2,3.9-1.2c1.1,0,2.4,0.3,3.9,1l-1.2,2.4c-0.9-0.8-1.9-1.2-2.9-1.2c-0.7,0-1.3,0.2-1.8,0.5
		s-0.7,0.8-0.7,1.4c0,0.4,0.1,0.8,0.4,1.1s0.8,0.6,1.5,1l1.9,1c0.6,0.3,1,0.7,1.3,1.2s0.4,1,0.4,1.6c0,1.6-0.6,2.8-1.7,3.7
		s-2.6,1.4-4.3,1.4C336.1,96.7,334.7,96.3,333.5,95.5z"/>
	<path class="st1" d="M345.7,91c0-2.6,0.8-4.9,2.3-6.7c1.5-1.9,3.5-2.8,5.9-2.8c1.8,0,3.1,0.5,4.1,1.4c0.9,1,1.4,2.3,1.4,4.1
		c0,1.4-0.3,2.9-0.8,4.4c-0.6,1.5-1.5,2.8-2.8,3.8s-2.8,1.5-4.6,1.5c-1.8,0-3.1-0.5-4.1-1.5S345.7,92.8,345.7,91z M348.4,90.9
		c0,2.5,1,3.7,3.1,3.7c1.5,0,2.8-0.7,3.7-2.2c0.9-1.5,1.4-3.2,1.4-5.2c0-2.3-1-3.5-3.1-3.5c-1.1,0-2,0.4-2.8,1.1s-1.4,1.7-1.7,2.9
		S348.4,89.9,348.4,90.9z"/>
	<path class="st1" d="M365.7,81.8l-1.7,9.3c-0.1,0.4-0.1,0.8-0.1,1.1c0,1.5,0.8,2.3,2.4,2.3c1,0,1.9-0.4,2.8-1.1
		c0.9-0.7,1.4-1.6,1.6-2.6l1.7-9h2.7l-2.7,14.6h-2.7l0.4-2.1c-1,1.6-2.8,2.3-5.3,2.3c-1.1,0-2-0.3-2.7-1c-0.6-0.7-1-1.6-1-2.9
		c0-0.4,0-0.9,0.1-1.4l1.7-9.6L365.7,81.8L365.7,81.8z"/>
	<path class="st1" d="M386.8,84.3c-0.5-0.4-1.2-0.7-1.9-0.7c-0.9,0-1.8,0.4-2.6,1.3c-0.8,0.9-1.4,1.9-1.6,3.1l-1.5,8.4h-2.6
		l2.6-14.6h2.6l-0.4,2.3c1.3-1.7,2.8-2.6,4.7-2.6c0.3,0,0.8,0.1,1.5,0.2L386.8,84.3z"/>
	<path class="st1" d="M399.8,82.2l-0.5,2.2c-0.7-0.5-1.5-0.8-2.6-0.8c-1.7,0-3,0.7-4.1,2c-1,1.3-1.6,3-1.6,4.9c0,1.2,0.3,2.1,1,2.8
		s1.4,1.1,2.3,1.1c1.3,0,2.6-0.4,3.8-1.2l-0.3,2.7c-1.2,0.5-2.5,0.8-3.9,0.8c-1.8,0-3.2-0.5-4.2-1.6c-1-1-1.5-2.4-1.5-4.1
		c0-2.8,0.8-5.1,2.3-6.8c1.5-1.8,3.5-2.7,5.9-2.7C397.9,81.5,399,81.8,399.8,82.2z"/>
	<path class="st1" d="M401.9,96.4l2.2-12.4h-1.9l0.5-2.1h4.5l-2.6,14.6h-2.7V96.4z M406.1,76c0.5,0,0.9,0.2,1.3,0.5s0.5,0.8,0.5,1.3
		s-0.2,0.9-0.5,1.3s-0.8,0.5-1.3,0.5s-0.9-0.2-1.3-0.5s-0.5-0.8-0.5-1.3s0.2-0.9,0.5-1.3S405.6,76,406.1,76z"/>
	<path class="st1" d="M418.6,96.4l1.5-8.5c0.1-0.8,0.2-1.4,0.2-1.9c0-1.5-0.8-2.3-2.4-2.3c-0.6,0-1.3,0.2-2,0.5
		c-0.7,0.4-1.3,0.8-1.7,1.3l-1.9,10.9h-2.6l2-11.1c0-0.3,0.1-0.6,0.1-0.9c0-0.9-0.1-1.7-0.3-2.4l2.5-0.5c0.2,1.3,0.4,2.1,0.4,2.2
		c1.1-1.4,2.7-2.2,4.8-2.2c2.7,0,4,1.3,4,4c0,0.5-0.1,1.1-0.2,1.8l-1.6,9.1L418.6,96.4L418.6,96.4z"/>
	<path class="st1" d="M423.8,100.5l1.2-1.9c1.7,0.8,3.1,1.3,4.2,1.3c1.2,0,2.2-0.2,3-0.7c0.8-0.4,1.2-1.1,1.2-1.9
		c0-0.4-0.1-0.7-0.4-1s-0.7-0.4-1.4-0.6l-2.4-0.4c-1-0.2-1.5-0.7-1.5-1.5c0-0.6,0.8-1.2,2.3-1.8h-0.5c-1.1,0-2-0.4-2.8-1.2
		s-1.2-1.8-1.2-2.9c0-1.9,0.6-3.5,1.9-4.7c1.2-1.2,2.8-1.8,4.7-1.8c1.4,0,2.5,0.3,3.3,1l1.2-1.4l1.4,1.5l-1.4,1.4
		c0.3,0.4,0.4,1,0.4,1.8c0,1.6-0.4,2.9-1.2,4c-0.8,1.1-1.8,1.9-3.1,2.4c-1.3,0.5-1.9,0.9-1.9,1.3c0,0.3,0.2,0.5,0.5,0.5
		c0.1,0,0.3,0,0.6-0.1c0.3,0,0.4-0.1,0.6-0.1c2.3,0,3.4,1,3.4,3.1c0,1.6-0.7,2.9-2.2,3.9c-1.4,1-3.2,1.4-5.1,1.4
		C426.7,102.1,425,101.6,423.8,100.5z M432,83.6c-1.1,0-1.9,0.4-2.7,1.2c-0.7,0.8-1.1,1.8-1.1,2.9c0,2,0.8,3,2.3,3
		c1,0,1.9-0.5,2.7-1.5c0.8-1,1.2-2.1,1.2-3.2c0-0.7-0.2-1.3-0.7-1.8C433.3,83.8,432.7,83.6,432,83.6z"/>
	<path class="st2" d="M447.7,95.8l0.8-2.6c0.4,0.3,1,0.6,1.8,0.8s1.5,0.3,2.3,0.3c1.1,0,2-0.3,2.6-0.8c0.7-0.5,1-1.3,1-2.2
		c0-0.8-0.2-1.5-0.7-2c-0.5-0.6-1.3-1.3-2.5-2.2s-2.1-1.7-2.6-2.4s-0.8-1.7-0.8-2.8c0-1.8,0.6-3.2,1.7-4.2s2.6-1.5,4.4-1.5
		c2.1,0,3.4,0.2,4.1,0.5l-0.8,2.7c-0.3-0.2-0.7-0.4-1.3-0.6s-1.2-0.3-1.7-0.3c-1.2,0-2.1,0.3-2.8,0.8c-0.7,0.5-1,1.3-1,2.3
		c0,0.4,0.1,0.8,0.3,1.2c0.2,0.4,0.5,0.7,0.9,1.1c0.4,0.3,1.1,0.9,2.3,1.7c1.1,0.8,2,1.7,2.5,2.6c0.5,0.9,0.8,1.9,0.8,3.1
		c0,1.8-0.6,3.2-1.8,4.2c-1.2,1-2.8,1.5-4.8,1.5c-0.7,0-1.5-0.1-2.4-0.3S448.2,96,447.7,95.8z"/>
	<path class="st2" d="M461.9,96.4l2.2-12.4h-1.9l0.5-2.1h4.5l-2.6,14.6h-2.7V96.4z M466.1,76c0.5,0,0.9,0.2,1.3,0.5s0.5,0.8,0.5,1.3
		s-0.2,0.9-0.5,1.3s-0.8,0.5-1.3,0.5s-0.9-0.2-1.3-0.5s-0.5-0.8-0.5-1.3s0.2-0.9,0.5-1.3S465.6,76,466.1,76z"/>
	<path class="st2" d="M486.4,96.4l1.6-9.3c0.1-0.4,0.1-0.7,0.1-1.1c0-1.6-0.8-2.4-2.4-2.4c-0.6,0-1.2,0.2-1.8,0.6
		c-0.6,0.4-1.1,0.8-1.4,1.3l-1.9,10.8h-2.7l1.9-10.4c0-0.2,0-0.3,0-0.4c0-1.3-0.9-1.9-2.6-1.9c-0.5,0-1.1,0.2-1.7,0.6
		c-0.6,0.4-1.1,0.8-1.5,1.3l-1.9,10.8h-2.7l1.9-10.7c0.1-0.3,0.1-0.7,0.1-1.3c0-1-0.1-1.8-0.3-2.5l2.5-0.5c0.2,0.7,0.3,1.3,0.3,1.9
		c0.4-0.6,1-1.1,1.8-1.4s1.7-0.5,2.6-0.5c2.1,0,3.4,0.7,4.1,2c0.4-0.6,1-1,1.9-1.4s1.7-0.6,2.5-0.6c2.7,0,4,1.3,4,3.8
		c0,0.4,0,0.9-0.1,1.3l-1.7,9.8h-2.6V96.4z"/>
	<path class="st2" d="M495.5,95.7l-1.2,6.5h-2.6l2.9-16.1c0.1-0.7,0.2-1.4,0.2-2.1c0-0.7-0.1-1.4-0.2-2l2.6-0.5
		c0,0.1,0.1,0.7,0.2,1.9c0.4-0.5,1-1,1.9-1.3c0.8-0.4,1.6-0.5,2.2-0.5c1.8,0,3.2,0.5,4.1,1.4c0.9,0.9,1.4,2.3,1.4,4.1
		c0,2.8-0.8,5.1-2.3,7s-3.6,2.8-6.1,2.8c-0.5,0-1.2-0.1-1.9-0.3S495.7,96,495.5,95.7z M495.9,93.5c0.2,0.3,0.5,0.5,1,0.7
		s1,0.3,1.4,0.3c1.9,0,3.4-0.6,4.4-1.9c1-1.3,1.6-3,1.6-5.3c0-1.2-0.3-2.1-0.9-2.7c-0.6-0.6-1.5-0.9-2.7-0.9c-0.5,0-1.1,0.2-1.8,0.6
		c-0.7,0.4-1.2,0.8-1.5,1.2L495.9,93.5z"/>
	<path class="st2" d="M514.3,94.8l-0.3,1.9c-2.9,0-4.4-1.1-4.4-3.3c0-0.7,0.2-2.1,0.7-4.4l2.6-13.3h2.7l-2.5,12.5
		c-0.5,2.6-0.8,4.2-0.8,4.9C512.3,94.2,513,94.8,514.3,94.8z"/>
	<path class="st2" d="M518.5,96.4l2.2-12.4h-1.9l0.5-2.1h4.5l-2.6,14.6h-2.7V96.4z M522.7,76c0.5,0,0.9,0.2,1.3,0.5s0.5,0.8,0.5,1.3
		s-0.2,0.9-0.5,1.3s-0.8,0.5-1.3,0.5s-0.9-0.2-1.3-0.5s-0.5-0.8-0.5-1.3s0.2-0.9,0.5-1.3S522.2,76,522.7,76z"/>
	<path class="st2" d="M537.5,78.2c-0.7-0.3-1.2-0.4-1.6-0.4c-1.7,0-2.7,1.3-3.2,3.9h3.4l-0.2,1.8h-3.4l-2.3,13.8
		c-0.2,1.3-0.8,2.3-1.8,3.1s-2.1,1.3-3.5,1.5l-0.2-1.6c0.5-0.1,1.1-0.5,1.7-1.1s0.9-1.3,1-1.9l2.4-13.8h-2.1l0.3-1.8h2
		c0.8-4,2.8-6,6-6c0.8,0,1.4,0.1,1.9,0.4L537.5,78.2z"/>
	<path class="st2" d="M538.3,96.4l2.2-12.4h-1.9l0.5-2.1h4.5L541,96.5h-2.7V96.4z M542.5,76c0.5,0,0.9,0.2,1.3,0.5s0.5,0.8,0.5,1.3
		s-0.2,0.9-0.5,1.3s-0.8,0.5-1.3,0.5s-0.9-0.2-1.3-0.5s-0.5-0.8-0.5-1.3s0.2-0.9,0.5-1.3S542,76,542.5,76z"/>
	<path class="st2" d="M549.3,89.5c-0.1,0.4-0.1,0.9-0.1,1.3c0,1.2,0.3,2.1,1,2.8c0.7,0.6,1.6,1,2.8,1c1.1,0,2.2-0.4,3.3-1.2
		l-0.3,2.7c-1.5,0.5-2.8,0.7-3.9,0.7c-3.8,0-5.7-2.1-5.7-6.3c0-2.5,0.8-4.6,2.4-6.3c1.6-1.7,3.6-2.6,6-2.6c1.5,0,2.6,0.3,3.5,0.9
		c0.9,0.6,1.3,1.5,1.3,2.7c0,1.6-0.7,2.9-2,3.8s-3,1.4-5,1.4C551.3,90.2,550.2,90,549.3,89.5z M549.8,87.6c0.7,0.3,1.5,0.5,2.5,0.5
		c1.4,0,2.6-0.2,3.5-0.7s1.4-1.1,1.4-2c0-1.1-0.8-1.7-2.3-1.7C552.4,83.7,550.7,85,549.8,87.6z"/>
	<path class="st2" d="M570.4,96.4l0.3-1.7c-1.1,1.3-2.5,1.9-4.3,1.9c-1.6,0-2.8-0.5-3.7-1.5s-1.3-2.3-1.3-4c0-2.9,0.8-5.2,2.3-7
		s3.5-2.7,5.9-2.7c1.4,0,2.5,0.6,3.2,1.7l1.4-7.5h2.5l-3.6,20.6h-2.7V96.4z M572.2,85.8c0-0.1-0.1-0.3-0.4-0.8
		c-0.3-0.4-0.6-0.8-0.9-1s-0.8-0.4-1.2-0.4c-1.6,0-3,0.7-4,2c-1.1,1.3-1.6,3-1.6,5c0,2.6,1.1,3.9,3.2,3.9c1,0,1.9-0.5,2.7-1.4
		s1.4-2.2,1.6-3.7L572.2,85.8z"/>
</g>
<g>
	<path class="st3" d="M143.3,38.6c0-4.6,1.3-8.6,3.8-11.8c2.6-3.2,6-4.8,10.2-4.8c4.7,0,8.3,1.5,10.8,4.4s3.7,7,3.7,12.2
		s-1.3,9.4-3.9,12.5c-2.6,3.1-6.3,4.6-11.1,4.6c-4.4,0-7.8-1.5-10.1-4.6C144.5,48.1,143.3,43.9,143.3,38.6z M149.4,38.6
		c0,3.8,0.6,6.8,1.9,8.9c1.3,2.1,3.2,3.1,5.7,3.1c2.9,0,5.1-1,6.6-3.1c1.5-2,2.3-5,2.3-8.9c0-7.6-2.8-11.5-8.5-11.5
		c-2.6,0-4.6,1-6,3.1S149.4,35.1,149.4,38.6z"/>
	<path class="st3" d="M195.5,33.2l-2.4,4.2c-1.3-1.2-3.1-1.8-5.3-1.8c-2.1,0-3.8,0.7-5,2.1S181,41,181,43.5c0,5,2.4,7.5,7.2,7.5
		c2.1,0,3.9-0.7,5.5-2l2.1,4.4c-1.6,1-3,1.6-4.3,1.9c-1.2,0.3-2.6,0.4-4.3,0.4c-3.7,0-6.6-1.1-8.7-3.2c-2.1-2.1-3.2-5.1-3.2-8.9
		s1.2-6.8,3.5-9.1c2.3-2.3,5.5-3.5,9.6-3.5C191,30.9,193.5,31.7,195.5,33.2z"/>
	<path class="st3" d="M201,35.8h-2.8v-4.5h2.8v-4.9l5.6-2v6.9h6.6v4.5h-6.6v10.4c0,1.7,0.3,2.9,0.8,3.6s1.5,1.1,2.8,1.1
		s2.6-0.4,3.8-1.1v5.1c-1.3,0.4-3.1,0.7-5.5,0.7s-4.2-0.7-5.5-2s-1.9-3.3-1.9-5.7V35.8H201z"/>
	<path class="st3" d="M231.6,52.8c-0.5,0.8-1.4,1.5-2.6,2s-2.6,0.8-3.9,0.8c-2.6,0-4.6-0.6-6.1-1.9s-2.2-3.1-2.2-5.5
		c0-2.8,1-4.9,3.1-6.5s5-2.3,8.9-2.3c0.7,0,1.4,0.1,2.3,0.3c0-2.8-1.8-4.2-5.3-4.2c-2.1,0-3.9,0.3-5.3,1l-1.2-4.3
		c1.9-0.9,4.2-1.4,6.9-1.4c3.6,0,6.3,0.8,8,2.5c1.7,1.7,2.5,4.8,2.5,9.4v5.1c0,3.2,0.6,5.2,1.9,6c-0.5,0.8-1,1.3-1.5,1.5
		s-1.2,0.3-1.9,0.3c-0.8,0-1.5-0.3-2.2-0.9S231.9,53.5,231.6,52.8z M231.1,44c-1-0.2-1.7-0.3-2.1-0.3c-4.4,0-6.6,1.4-6.6,4.3
		c0,2.1,1.2,3.2,3.7,3.2c3.4,0,5-1.7,5-5L231.1,44L231.1,44z"/>
	<path class="st3" d="M243.7,22.5l5.6-1.3V48c0,2.9,0.9,4.7,2.6,5.3c-0.9,1.6-2.3,2.4-4.4,2.4c-2.5,0-3.8-1.8-3.8-5.3L243.7,22.5
		L243.7,22.5z"/>
	<path class="st3" d="M270.4,55.2V22.6h5.8v32.6H270.4z"/>
	<path class="st3" d="M296.4,27.7v27.5h-5.8V27.7h-10.4v-5.1h27.1v5.1H296.4z"/>
	<path class="st3" d="M322.5,53.4l2.1-5.2c2.3,1.6,4.6,2.4,6.8,2.4c3.4,0,5.1-1.2,5.1-3.6c0-1.1-0.4-2.2-1.2-3.2s-2.5-2.1-5-3.4
		s-4.2-2.3-5.1-3.1c-0.9-0.8-1.5-1.8-2-2.9s-0.7-2.3-0.7-3.7c0-2.5,0.9-4.6,2.8-6.3c1.9-1.7,4.2-2.5,7.1-2.5c3.8,0,6.6,0.7,8.3,2.1
		l-1.8,5c-2-1.5-4.2-2.2-6.5-2.2c-1.3,0-2.4,0.4-3.1,1.1s-1.1,1.6-1.1,2.8c0,1.9,2.1,3.8,6.2,5.8c2.2,1.1,3.8,2.1,4.7,3
		c1,0.9,1.7,1.9,2.2,3.1s0.8,2.5,0.8,4c0,2.6-1,4.8-3.1,6.5s-4.9,2.6-8.4,2.6C327.7,55.8,324.9,55,322.5,53.4z"/>
	<path class="st3" d="M345.5,43.2c0-3.6,1.1-6.6,3.2-8.9s4.9-3.4,8.3-3.4c3.6,0,6.5,1.1,8.5,3.3c2,2.2,3,5.2,3,9s-1,6.8-3.1,9.1
		c-2,2.2-4.9,3.4-8.4,3.4c-3.6,0-6.5-1.1-8.5-3.4C346.5,50,345.5,47,345.5,43.2z M351.3,43.2c0,5.3,1.9,7.9,5.7,7.9
		c1.7,0,3.1-0.7,4.1-2c1-1.4,1.5-3.3,1.5-5.8c0-5.2-1.9-7.8-5.7-7.8c-1.7,0-3.1,0.7-4.2,2C351.8,38.9,351.3,40.8,351.3,43.2z"/>
	<path class="st3" d="M373.9,22.5l5.6-1.3V48c0,2.9,0.9,4.7,2.6,5.3c-0.9,1.6-2.3,2.4-4.4,2.4c-2.5,0-3.8-1.8-3.8-5.3L373.9,22.5
		L373.9,22.5z"/>
	<path class="st3" d="M401.9,55.2v-2c-0.8,0.7-1.9,1.2-3.3,1.7s-2.7,0.7-3.8,0.7c-5.6,0-8.3-2.9-8.3-8.8V31.3h5.6v15.1
		c0,3.1,1.4,4.6,4.1,4.6c1.3,0,2.4-0.3,3.5-1s1.8-1.4,2.2-2.3V31.3h5.6v23.9H401.9z"/>
	<path class="st3" d="M414.4,35.8h-2.8v-4.5h2.8v-4.9l5.6-2v6.9h6.6v4.5H420v10.4c0,1.7,0.3,2.9,0.8,3.6s1.5,1.1,2.8,1.1
		s2.6-0.4,3.8-1.1v5.1c-1.3,0.4-3.1,0.7-5.5,0.7s-4.2-0.7-5.5-2s-1.9-3.3-1.9-5.7L414.4,35.8L414.4,35.8z"/>
	<path class="st3" d="M433.2,55.2V35.9h-3.1v-4.6h8.7v23.9H433.2z M436.1,22.1c0.9,0,1.7,0.3,2.3,0.9c0.6,0.6,0.9,1.4,0.9,2.3
		s-0.3,1.7-0.9,2.3c-0.6,0.6-1.4,0.9-2.3,0.9s-1.7-0.3-2.3-0.9c-0.6-0.6-0.9-1.4-0.9-2.3s0.3-1.7,0.9-2.3S435.2,22.1,436.1,22.1z"/>
	<path class="st3" d="M443.8,43.2c0-3.6,1.1-6.6,3.2-8.9s4.9-3.4,8.3-3.4c3.6,0,6.5,1.1,8.5,3.3c2,2.2,3,5.2,3,9s-1,6.8-3.1,9.1
		c-2,2.2-4.9,3.4-8.4,3.4c-3.6,0-6.5-1.1-8.5-3.4C444.8,50,443.8,47,443.8,43.2z M449.6,43.2c0,5.3,1.9,7.9,5.7,7.9
		c1.7,0,3.1-0.7,4.1-2c1-1.4,1.5-3.3,1.5-5.8c0-5.2-1.9-7.8-5.7-7.8c-1.7,0-3.1,0.7-4.2,2C450.1,38.9,449.6,40.8,449.6,43.2z"/>
	<path class="st3" d="M486.6,55.2V41.4c0-2-0.4-3.5-1.2-4.5c-0.8-0.9-2.1-1.4-3.8-1.4c-0.8,0-1.7,0.2-2.6,0.7s-1.7,1-2.2,1.7v17.2
		h-5.6V31.3h4l1,2.2c1.5-1.8,3.8-2.7,6.7-2.7c2.8,0,5.1,0.9,6.7,2.6c1.6,1.7,2.5,4.1,2.5,7.1v14.6h-5.5V55.2z"/>
	<path class="st3" d="M512.4,55.2V22.6h5.8v27.5H533v5.1H512.4z"/>
	<path class="st3" d="M537.7,55.2V22.6h5.8v27.5h14.8v5.1H537.7z"/>
	<path class="st3" d="M568.8,43.2v12H563V22.6c3.9-0.2,6.1-0.2,6.8-0.2c5.2,0,9,0.8,11.3,2.4c2.4,1.6,3.6,4.1,3.6,7.4
		c0,7.5-4.4,11.2-13.3,11.2C570.8,43.4,569.9,43.3,568.8,43.2z M568.8,27.6V38c1,0.1,1.8,0.2,2.3,0.2c2.7,0,4.6-0.4,5.8-1.3
		s1.8-2.3,1.8-4.3c0-3.4-2.7-5.1-8.2-5.1C569.9,27.5,569.4,27.5,568.8,27.6z"/>
</g>
<g id="Shape_1">
	<g>
		<path class="st4" d="M40.2,20.9c6.4-3.1,12.9-6.3,12-9c-0.9-1.5-11.6,1.4-16.8,4.1c-10.4,5.1-11.6,7.9-11.7,8.9
			C26.3,26.5,32.7,24.1,40.2,20.9z M14.1,38.9c7.6,2,42-9.5,54.9-23.5c1.6-2.6-1.3-4.2-15.5-4.2c3.5,0,2.1,2.7,0.7,3.5
			C42.8,23.8,24,29.1,22,27.4c-1.3-1,1-3.1,1.3-3.3C24.3,22.1,9.4,38,14.1,38.9z M9.1,55.1c17.8,3.3,70.1-22.6,75.3-32.5
			c1.8-3.3-6.8-7-11.6-8.5c1.4,0.6,2.2,1.9,0,4.1c-6,8.1-46.5,28.1-60.8,25.3c-1.2-0.5-1.1-1.5-0.8-2.2C9.5,44.6,6.1,53.7,9.1,55.1z
			 M11.2,41.3c0.1-0.2,0.2-0.5,0.3-0.6C11.4,40.7,11.3,41,11.2,41.3z M88.3,23.3c0.4,0.3,0.7,0.7,1.1,1
			C89.1,23.9,88.8,23.6,88.3,23.3z M96.6,34.5c1.2-2.4-2.5-5.9-7.2-10.2c1,1.4,0,2.8-0.4,3.4C82.4,38.9,26.4,65.7,8.9,62
			c-1-0.5-1.4-1.2-1.5-1.8c-0.1,11.2,1,11.8,3.7,12.6C27.5,74.8,85.9,51.2,96.6,34.5z M7.3,60.1c0-0.3,0-0.7,0-1.1
			C7.3,59.3,7.3,59.7,7.3,60.1z M10.9,79c0-0.1-0.1-0.2-0.1-0.4C10.9,78.7,10.9,78.8,10.9,79z M103.8,50.7c1-1.9-1.7-10.1-3.9-12.1
			c1.5,1.3,1.4,3.3-0.4,5.5C92.9,53.7,41.6,81.5,14.6,81c-1.7-0.2-3.2-0.8-3.6-1.9c0.6,2.1,3.3,7.9,4.9,9.1
			C28.7,93.8,93.1,67,103.8,50.7z M104.3,57.5c2.5,2.1-1.1,5.7-2.6,7.2c-7.9,7.9-51.3,31.6-76.1,31.8c-1.6,0-3.4-0.4-4.2-1.8
			c0.4,1.1,5.8,5.8,7.4,6.1c9.3,3.4,65.9-17.7,76.1-33.8C105.7,65.8,106.2,58.4,104.3,57.5z M98.8,82.1
			c-6.9,6.3-37.4,22.8-57.1,24.4c-1.6-0.1-4.1,0.1-5-2c0.4,3,7.7,3.9,9.6,3.7c20.7-3,48.6-17.3,54-25.5c0,0,3.1-5,1.5-6.6
			C102.5,78.7,99.9,81.3,98.8,82.1z M56.6,109.4c10.8,1.8,34.2-10.5,35.9-16.3C90.6,98,67.4,110.1,56.6,109.4z"/>
	</g>
</g>
<g id="Shape_4">
	<g>
		<path class="st5" d="M129.8,45.4c7.1,16.2-1.8,32.7,0,29.9C132.1,72.6,142.2,59.5,129.8,45.4z M111.3,29.7
			c12.1,9.9,21.6,38,1.4,59.9C127.3,82,141,48.5,111.3,29.7z M91.4,22.6c31.5,20.4,30,54.6,1.4,75.5C145,68.7,110,26.2,91.4,22.6z"
			/>
	</g>
</g>
</svg>
